<svg width="43" height="44" viewBox="0 0 43 44" fill="none" xmlns="http://www.w3.org/2000/svg">
<g clip-path="url(#clip0_1_495)">
<path d="M35.9195 30.862H39.4597V34.4022H4.05768V30.862H7.59788V18.4712C7.59788 14.7156 9.08982 11.1137 11.7455 8.45803C14.4012 5.80236 18.003 4.31042 21.7587 4.31042C25.5144 4.31042 29.1163 5.80236 31.7719 8.45803C34.4276 11.1137 35.9195 14.7156 35.9195 18.4712V30.862ZM32.3793 30.862V18.4712C32.3793 15.6545 31.2604 12.9531 29.2686 10.9613C27.2769 8.96959 24.5755 7.85063 21.7587 7.85063C18.9419 7.85063 16.2405 8.96959 14.2488 10.9613C12.257 12.9531 11.1381 15.6545 11.1381 18.4712V30.862H32.3793ZM16.4484 37.9424H27.069V41.4826H16.4484V37.9424Z" fill="#3F3F44"/>
</g>
<circle cx="32.3793" cy="11.3908" r="7.08041" fill="#5679FF"/>
<defs>
<clipPath id="clip0_1_495">
<rect width="42.4825" height="42.4825" fill="white" transform="translate(0.517517 0.770264)"/>
</clipPath>
</defs>
</svg>
