<svg width="25" height="25" viewBox="0 0 25 25" fill="none" xmlns="http://www.w3.org/2000/svg">
<path d="M18.5417 3.12498H23.375C23.6955 3.12498 24.0028 3.25229 24.2294 3.47889C24.4561 3.7055 24.5834 4.01284 24.5834 4.33331V23.6666C24.5834 23.9871 24.4561 24.2945 24.2294 24.5211C24.0028 24.7477 23.6955 24.875 23.375 24.875H1.62502C1.30455 24.875 0.997206 24.7477 0.7706 24.5211C0.543993 24.2945 0.416687 23.9871 0.416687 23.6666V4.33331C0.416687 4.01284 0.543993 3.7055 0.7706 3.47889C0.997206 3.25229 1.30455 3.12498 1.62502 3.12498H6.45835V0.708313H8.87502V3.12498H16.125V0.708313H18.5417V3.12498ZM22.1667 12.7916H2.83335V22.4583H22.1667V12.7916ZM16.125 5.54165H8.87502V7.95831H6.45835V5.54165H2.83335V10.375H22.1667V5.54165H18.5417V7.95831H16.125V5.54165ZM5.25002 15.2083H7.66669V17.625H5.25002V15.2083ZM11.2917 15.2083H13.7084V17.625H11.2917V15.2083ZM17.3334 15.2083H19.75V17.625H17.3334V15.2083Z" fill="white"/>
</svg>
