<svg width="32" height="31" viewBox="0 0 32 31" fill="none" xmlns="http://www.w3.org/2000/svg">
<path d="M23.4885 3.04105H29.5201C29.92 3.04105 30.3036 3.19992 30.5863 3.4827C30.8691 3.76548 31.028 4.14902 31.028 4.54894V28.6752C31.028 29.0751 30.8691 29.4586 30.5863 29.7414C30.3036 30.0242 29.92 30.1831 29.5201 30.1831H2.37807C1.97815 30.1831 1.59461 30.0242 1.31183 29.7414C1.02904 29.4586 0.870178 29.0751 0.870178 28.6752V4.54894C0.870178 4.14902 1.02904 3.76548 1.31183 3.4827C1.59461 3.19992 1.97815 3.04105 2.37807 3.04105H8.40963V0.0252686H11.4254V3.04105H20.4728V0.0252686H23.4885V3.04105ZM28.0122 15.1042H3.88596V27.1673H28.0122V15.1042ZM20.4728 6.05683H11.4254V9.07261H8.40963V6.05683H3.88596V12.0884H28.0122V6.05683H23.4885V9.07261H20.4728V6.05683ZM6.90174 18.12H9.91752V21.1357H6.90174V18.12ZM14.4412 18.12H17.457V21.1357H14.4412V18.12ZM21.9806 18.12H24.9964V21.1357H21.9806V18.12Z" fill="#3F3F44"/>
</svg>
