<svg width="38" height="37" viewBox="0 0 38 37" fill="none" xmlns="http://www.w3.org/2000/svg">
<g clip-path="url(#clip0_1_1010)">
<g clip-path="url(#clip1_1_1010)">
<path d="M33.5026 4.87952H3.13435C1.86644 4.87952 0.834839 5.91112 0.834839 7.17903V28.2032C0.834839 29.4712 1.86644 30.5027 3.13435 30.5027H33.5026C34.7706 30.5027 35.8022 29.4711 35.8022 28.2032V7.17903C35.8022 5.91112 34.7706 4.87952 33.5026 4.87952ZM9.01091 29.4077H3.13435C2.47018 29.4077 1.92982 28.8674 1.92982 28.2032V7.17903C1.92982 6.51485 2.47018 5.9745 3.13435 5.9745H9.01091V29.4077ZM34.7072 28.2033C34.7072 28.8674 34.1668 29.4078 33.5026 29.4078H10.106V5.97457H33.5026C34.1668 5.97457 34.7072 6.51492 34.7072 7.1791V28.2033Z" fill="#101928"/>
<path d="M14.2304 7.21555H11.8944C11.592 7.21555 11.3469 7.46066 11.3469 7.76307C11.3469 8.06548 11.592 8.3106 11.8944 8.3106H14.2304C14.5328 8.3106 14.778 8.06548 14.778 7.76307C14.778 7.46066 14.5328 7.21555 14.2304 7.21555Z" fill="#101928"/>
<path d="M7.22225 7.21555H3.71821C3.41587 7.21555 3.17068 7.46066 3.17068 7.76307C3.17068 8.06548 3.4158 8.3106 3.71821 8.3106H7.22225C7.52459 8.3106 7.76978 8.06548 7.76978 7.76307C7.76978 7.46066 7.52466 7.21555 7.22225 7.21555Z" fill="#101928"/>
<path d="M7.22225 13.0556H3.71821C3.41587 13.0556 3.17068 13.3007 3.17068 13.6032C3.17068 13.9056 3.4158 14.1507 3.71821 14.1507H7.22225C7.52459 14.1507 7.76978 13.9056 7.76978 13.6032C7.76978 13.3007 7.52466 13.0556 7.22225 13.0556Z" fill="#101928"/>
<path d="M7.22225 17.7277H3.71821C3.41587 17.7277 3.17068 17.9728 3.17068 18.2752C3.17068 18.5776 3.4158 18.8227 3.71821 18.8227H7.22225C7.52459 18.8227 7.76978 18.5776 7.76978 18.2752C7.76978 17.9728 7.52466 17.7277 7.22225 17.7277Z" fill="#101928"/>
<path d="M7.22225 22.3992H3.71821C3.41587 22.3992 3.17068 22.6443 3.17068 22.9467C3.17068 23.2491 3.4158 23.4943 3.71821 23.4943H7.22225C7.52459 23.4943 7.76978 23.2491 7.76978 22.9467C7.76978 22.6443 7.52466 22.3992 7.22225 22.3992Z" fill="#101928"/>
<path d="M7.22225 15.3914H3.71821C3.41587 15.3914 3.17068 15.6365 3.17068 15.9389C3.17068 16.2413 3.4158 16.4864 3.71821 16.4864H7.22225C7.52459 16.4864 7.76978 16.2413 7.76978 15.9389C7.76978 15.6365 7.52466 15.3914 7.22225 15.3914Z" fill="#101928"/>
<path d="M7.22225 20.064H3.71821C3.41587 20.064 3.17068 20.3091 3.17068 20.6115C3.17068 20.9139 3.4158 21.159 3.71821 21.159H7.22225C7.52459 21.159 7.76978 20.9139 7.76978 20.6115C7.76978 20.3091 7.52466 20.064 7.22225 20.064Z" fill="#101928"/>
<path d="M6.05426 25.9038H3.71821C3.41587 25.9038 3.17068 26.1489 3.17068 26.4513C3.17068 26.7536 3.4158 26.9988 3.71821 26.9988H6.05426C6.3566 26.9988 6.60178 26.7537 6.60178 26.4513C6.60178 26.1489 6.3566 25.9038 6.05426 25.9038Z" fill="#101928"/>
<path d="M6.05426 9.55157H3.71821C3.41587 9.55157 3.17068 9.79669 3.17068 10.0991C3.17068 10.4015 3.4158 10.6466 3.71821 10.6466H6.05426C6.3566 10.6466 6.60178 10.4015 6.60178 10.0991C6.60178 9.79669 6.3566 9.55157 6.05426 9.55157Z" fill="#101928"/>
<path d="M18.9024 7.21555H16.5664C16.264 7.21555 16.0188 7.46066 16.0188 7.76307C16.0188 8.06548 16.2639 8.3106 16.5664 8.3106H18.9024C19.2047 8.3106 19.4499 8.06548 19.4499 7.76307C19.4499 7.46066 19.2048 7.21555 18.9024 7.21555Z" fill="#101928"/>
<path d="M23.5744 7.21555H21.2383C20.936 7.21555 20.6908 7.46066 20.6908 7.76307C20.6908 8.06548 20.9359 8.3106 21.2383 8.3106H23.5744C23.8767 8.3106 24.1219 8.06548 24.1219 7.76307C24.1219 7.46066 23.8768 7.21555 23.5744 7.21555Z" fill="#101928"/>
<path d="M28.2464 7.21555H25.9103C25.608 7.21555 25.3628 7.46066 25.3628 7.76307C25.3628 8.06548 25.6079 8.3106 25.9103 8.3106H28.2464C28.5487 8.3106 28.7939 8.06548 28.7939 7.76307C28.7939 7.46066 28.5487 7.21555 28.2464 7.21555Z" fill="#101928"/>
<path d="M32.9186 7.21555H30.5826C30.2802 7.21555 30.035 7.46066 30.035 7.76307C30.035 8.06548 30.2801 8.3106 30.5826 8.3106H32.9186C33.221 8.3106 33.4661 8.06548 33.4661 7.76307C33.4661 7.46066 33.221 7.21555 32.9186 7.21555Z" fill="#101928"/>
<path d="M18.0635 19.5896C17.8217 19.408 17.4785 19.4568 17.297 19.6985C16.8437 20.3018 16.1518 20.6478 15.3985 20.6478C14.0903 20.6478 13.026 19.5835 13.026 18.2753C13.026 16.9671 14.0903 15.9028 15.3985 15.9028C16.1523 15.9028 16.8447 16.2492 17.2978 16.8532C17.4792 17.0951 17.8224 17.1442 18.0643 16.9626C18.3061 16.7811 18.3551 16.438 18.1737 16.1961C17.5117 15.3138 16.5002 14.8078 15.3984 14.8078C13.4865 14.8078 11.9309 16.3633 11.9309 18.2753C11.9309 20.1872 13.4865 21.7428 15.3984 21.7428C16.4993 21.7428 17.5104 21.2374 18.1724 20.3562C18.3541 20.1144 18.3053 19.7712 18.0635 19.5896Z" fill="#101928"/>
<path d="M23.4643 19.357C24.5056 19.1378 25.2898 18.2123 25.2898 17.1068C25.2898 15.8388 24.2582 14.8073 22.9903 14.8073H20.0703C19.7679 14.8073 19.5227 15.0524 19.5227 15.3548V21.1948C19.5227 21.4971 19.7678 21.7423 20.0703 21.7423C20.3727 21.7423 20.6178 21.4972 20.6178 21.1948V19.4063H22.1326L23.7203 21.5233C23.828 21.6667 23.9923 21.7423 24.1588 21.7423C24.2731 21.7423 24.3884 21.7066 24.4869 21.6328C24.7287 21.4515 24.7778 21.1082 24.5963 20.8664L23.4643 19.357ZM20.6177 18.3114V15.9024H22.9902C23.6544 15.9024 24.1948 16.4427 24.1948 17.1069C24.1948 17.7711 23.6544 18.3114 22.9902 18.3114H20.6177V18.3114Z" fill="#101928"/>
<path d="M32.8792 21.1403L32.2952 15.3003C32.2701 15.0493 32.0768 14.848 31.8271 14.8127C31.5776 14.7773 31.3358 14.9173 31.2421 15.1515L29.4144 19.7207L27.5867 15.1515C27.493 14.9173 27.2515 14.7777 27.0017 14.8127C26.752 14.848 26.5587 15.0493 26.5336 15.3003L25.9496 21.1403C25.9195 21.4413 26.139 21.7095 26.4399 21.7396C26.7405 21.7697 27.009 21.5502 27.0392 21.2493L27.4007 17.6346L28.9061 21.3982C28.9893 21.606 29.1905 21.7423 29.4145 21.7423C29.6384 21.7423 29.8397 21.606 29.9228 21.3982L31.4282 17.6346L31.7897 21.2493C31.818 21.5316 32.0559 21.7423 32.3339 21.7423C32.3521 21.7423 32.3705 21.7414 32.389 21.7395C32.6898 21.7095 32.9093 21.4412 32.8792 21.1403Z" fill="#101928"/>
</g>
</g>
<defs>
<clipPath id="clip0_1_1010">
<rect width="36.4876" height="36.4876" fill="white" transform="translate(0.834778 0.207458)"/>
</clipPath>
<clipPath id="clip1_1_1010">
<rect width="34.9673" height="34.9673" fill="white" transform="translate(0.834778 0.207458)"/>
</clipPath>
</defs>
</svg>
