<svg width="43" height="43" viewBox="0 0 43 43" fill="none" xmlns="http://www.w3.org/2000/svg">
<g clip-path="url(#clip0_1_522)">
<path d="M21.7814 24.9451V28.4416C18.9994 28.4416 16.3313 29.5468 14.3641 31.514C12.3969 33.4812 11.2917 36.1493 11.2917 38.9313H7.79517C7.79517 35.2219 9.26871 31.6645 11.8916 29.0416C14.5146 26.4186 18.072 24.9451 21.7814 24.9451ZM21.7814 23.1968C15.9859 23.1968 11.2917 18.5027 11.2917 12.7071C11.2917 6.9116 15.9859 2.21747 21.7814 2.21747C27.5769 2.21747 32.2711 6.9116 32.2711 12.7071C32.2711 18.5027 27.5769 23.1968 21.7814 23.1968ZM21.7814 19.7003C25.6451 19.7003 28.7745 16.5708 28.7745 12.7071C28.7745 8.84344 25.6451 5.71403 21.7814 5.71403C17.9177 5.71403 14.7883 8.84344 14.7883 12.7071C14.7883 16.5708 17.9177 19.7003 21.7814 19.7003ZM32.2711 38.0572L27.1329 40.7583L28.1137 35.0379L23.958 30.9854L29.7028 30.1497L32.2711 24.9451L34.841 30.1497L40.5841 30.9854L36.4285 35.0379L37.4075 40.7583L32.2711 38.0572Z" fill="#3F3F44"/>
</g>
<defs>
<clipPath id="clip0_1_522">
<rect width="41.9587" height="41.9587" fill="white" transform="translate(0.802277 0.469116)"/>
</clipPath>
</defs>
</svg>
