<svg width="34" height="39" viewBox="0 0 34 39" fill="none" xmlns="http://www.w3.org/2000/svg">
<path d="M14.7814 22.9451V26.4416C11.9994 26.4416 9.33127 27.5468 7.36408 29.514C5.39688 31.4812 4.29172 34.1493 4.29172 36.9313H0.795166C0.795166 33.2219 2.26871 29.6645 4.89164 27.0416C7.51456 24.4186 11.072 22.9451 14.7814 22.9451ZM14.7814 21.1968C8.98585 21.1968 4.29172 16.5027 4.29172 10.7071C4.29172 4.9116 8.98585 0.217468 14.7814 0.217468C20.5769 0.217468 25.2711 4.9116 25.2711 10.7071C25.2711 16.5027 20.5769 21.1968 14.7814 21.1968ZM14.7814 17.7003C18.6451 17.7003 21.7745 14.5708 21.7745 10.7071C21.7745 6.84344 18.6451 3.71403 14.7814 3.71403C10.9177 3.71403 7.78828 6.84344 7.78828 10.7071C7.78828 14.5708 10.9177 17.7003 14.7814 17.7003ZM25.2711 36.0572L20.1329 38.7583L21.1137 33.0379L16.958 28.9854L22.7028 28.1497L25.2711 22.9451L27.841 28.1497L33.5841 28.9854L29.4285 33.0379L30.4075 38.7583L25.2711 36.0572Z" fill="#3F3F44"/>
</svg>
