<svg width="36" height="36" viewBox="0 0 36 36" fill="none" xmlns="http://www.w3.org/2000/svg">
<path d="M17.9587 35.9315C8.30292 35.9315 0.475876 28.1045 0.475876 18.4487C0.475876 8.79299 8.30292 0.965942 17.9587 0.965942C27.6144 0.965942 35.4415 8.79299 35.4415 18.4487C35.4415 28.1045 27.6144 35.9315 17.9587 35.9315ZM17.9587 32.435C21.668 32.435 25.2255 30.9614 27.8484 28.3385C30.4714 25.7156 31.9449 22.1581 31.9449 18.4487C31.9449 14.7394 30.4714 11.1819 27.8484 8.55897C25.2255 5.93605 21.668 4.4625 17.9587 4.4625C14.2493 4.4625 10.6918 5.93605 8.06891 8.55897C5.44598 11.1819 3.97243 14.7394 3.97243 18.4487C3.97243 22.1581 5.44598 25.7156 8.06891 28.3385C10.6918 30.9614 14.2493 32.435 17.9587 32.435ZM11.8397 21.9453H21.4552C21.6871 21.9453 21.9094 21.8532 22.0733 21.6893C22.2373 21.5253 22.3294 21.303 22.3294 21.0711C22.3294 20.8393 22.2373 20.617 22.0733 20.453C21.9094 20.2891 21.6871 20.197 21.4552 20.197H14.4621C13.3029 20.197 12.1912 19.7365 11.3716 18.9169C10.5519 18.0972 10.0914 16.9855 10.0914 15.8263C10.0914 14.6671 10.5519 13.5554 11.3716 12.7358C12.1912 11.9161 13.3029 11.4556 14.4621 11.4556H16.2104V7.95906H19.7069V11.4556H24.0776V14.9522H14.4621C14.2303 14.9522 14.0079 15.0443 13.844 15.2082C13.6801 15.3721 13.588 15.5945 13.588 15.8263C13.588 16.0581 13.6801 16.2805 13.844 16.4444C14.0079 16.6084 14.2303 16.7005 14.4621 16.7005H21.4552C22.6144 16.7005 23.7261 17.1609 24.5458 17.9806C25.3654 18.8003 25.8259 19.912 25.8259 21.0711C25.8259 22.2303 25.3654 23.342 24.5458 24.1617C23.7261 24.9814 22.6144 25.4418 21.4552 25.4418H19.7069V28.9384H16.2104V25.4418H11.8397V21.9453Z" fill="#3F3F44"/>
</svg>
