<svg width="31" height="31" viewBox="0 0 31 31" fill="none" xmlns="http://www.w3.org/2000/svg">
<g clip-path="url(#clip0_1_976)">
<path d="M20.1921 20.6417L19.9603 20.5893L19.7633 20.7212C17.2422 22.4117 13.9959 22.4117 11.4749 20.7212L11.2779 20.5893L11.0467 20.6417C4.95078 22.0187 0.855713 25.9515 0.855713 30.4285V30.9804H30.3823V30.4285C30.3823 25.9515 26.2872 22.0187 20.1921 20.6417ZM1.98386 29.8766C2.30999 26.2092 5.86702 23.0121 11.0637 21.7709C13.8491 23.5336 17.3873 23.5342 20.1744 21.7709C25.3705 23.0121 28.9275 26.2093 29.2542 29.8766H1.98386Z" fill="#101928"/>
<path d="M10.8599 19.4313C12.3026 20.3983 13.9484 20.9098 15.6189 20.9098C17.2894 20.9098 18.9347 20.3983 20.3773 19.4313C20.4988 19.3502 20.6152 19.2619 20.7322 19.1747H24.7848V11.9569C24.8362 11.5154 24.8637 11.0661 24.8637 10.6202C24.8637 4.94683 20.7168 0.33075 15.6195 0.33075C10.9929 0.33075 7.139 4.06712 6.47564 9.10257H6.37463V10.6203V19.1747H10.5056C10.6226 19.262 10.739 19.3502 10.8599 19.4313ZM23.6805 18.0709H21.9812C22.0723 17.9744 22.1566 17.8717 22.2444 17.7713C22.2941 17.7138 22.3454 17.6598 22.3934 17.6013C22.5877 17.3689 22.7726 17.1288 22.9453 16.8777C22.9762 16.833 23.0038 16.7856 23.0342 16.7402C23.1755 16.5289 23.3086 16.3125 23.4349 16.0901C23.4801 16.0106 23.5238 15.9317 23.5668 15.8511C23.6038 15.7815 23.6457 15.7136 23.681 15.6435L23.6805 18.0709ZM15.6189 1.43457C19.6483 1.43457 22.9944 4.7586 23.6386 9.10266H7.59768C8.24337 4.69238 11.5972 1.43457 15.6189 1.43457ZM7.47845 10.2064H23.7412C23.7468 10.3444 23.7595 10.4807 23.7595 10.6203C23.7595 11.0359 23.7341 11.4553 23.6844 11.867C23.6462 12.1855 23.5927 12.5 23.5249 12.8096C23.3218 13.7384 22.9901 14.6226 22.5464 15.4312C21.9553 16.509 21.1645 17.4522 20.2158 18.1868L20.2031 18.1973C20.0596 18.3076 19.9133 18.4147 19.7632 18.5146C17.2421 20.2056 13.9958 20.2051 11.4748 18.5146C11.3203 18.4108 11.1696 18.3016 11.0217 18.1868C8.80305 16.4688 7.47855 13.6403 7.47855 10.6209C7.47845 10.6209 7.47845 10.2064 7.47845 10.2064ZM7.47845 18.0709V15.4831C7.49723 15.5212 7.51934 15.5576 7.53802 15.5956C7.62025 15.7606 7.70691 15.9234 7.79737 16.0835C7.83326 16.147 7.8697 16.2099 7.90661 16.2729C8.00428 16.4373 8.10584 16.5984 8.21183 16.7563C8.23884 16.7972 8.26483 16.8386 8.2924 16.8794C8.42762 17.0748 8.56886 17.2641 8.71685 17.449C8.74996 17.4904 8.7853 17.5296 8.81896 17.571C8.93708 17.7139 9.05908 17.8536 9.18487 17.9894C9.20966 18.0164 9.23176 18.0457 9.25664 18.0716L7.47845 18.0709Z" fill="#101928"/>
</g>
<defs>
<clipPath id="clip0_1_976">
<rect width="30.6496" height="30.6496" fill="white" transform="translate(0.29422 0.330994)"/>
</clipPath>
</defs>
</svg>
