<svg width="153" height="58" viewBox="0 0 153 58" fill="none" xmlns="http://www.w3.org/2000/svg">
<g clip-path="url(#clip0_0_1)">
<path fill-rule="evenodd" clip-rule="evenodd" d="M30.7881 0.94043C34.8351 2.78938 36.1841 5.38863 35.8064 8.12186C35.2128 10.6943 32.6497 12.972 30.6532 14.3654C26.4712 17.2862 20.4276 19.8319 15.2743 18.2241C11.2543 16.9647 12.1446 12.4093 12.0637 12.8916C11.686 14.821 12.1176 16.9647 13.7095 18.2777C15.1394 19.4567 17.5947 19.7783 19.4023 19.7783C21.0212 19.7783 22.667 19.4835 24.2588 19.0816C23.2605 19.5907 22.2353 20.073 21.1831 20.475C16.9201 22.0828 13.3587 21.4129 9.71639 22.3239C3.02525 23.9853 0.597015 30.2557 0.597015 30.2557C0.597015 30.2557 3.59184 23.9317 15.787 24.2533C15.8679 24.2533 16.1377 24.2801 16.2456 24.2801C11.4701 27.4421 8.82603 31.9706 13.3857 41.9925C12.4414 27.4688 26.3363 26.3434 33.8638 22.2436C45.3305 16.0268 46.1399 3.83444 30.7881 0.94043Z" fill="#5679FF"/>
<path fill-rule="evenodd" clip-rule="evenodd" d="M46.6258 32.5872C48.7033 33.8199 50.2682 34.1414 53.29 34.0075L52.2378 33.4447C50.8078 32.8284 50.565 32.6676 49.2699 31.7566C45.007 28.5946 45.4387 21.9223 45.1149 17.1525C44.8991 14.4461 44.5753 11.9272 43.685 9.70313C43.4422 9.11361 42.6327 7.93457 42.6327 7.93457C43.9278 12.3024 43.8199 14.7141 41.2567 19.9661C38.4508 25.7274 43.685 28.8893 39.7998 29.4253C37.1287 29.8004 37.8572 30.256 37.9921 31.6494C38.0731 32.5872 37.4795 32.6408 36.4273 32.748C36.5891 34.5166 36.6971 34.2754 35.1592 34.5166C33.5404 34.7578 35.0513 38.4824 31.7596 37.7589C29.7091 37.3034 28.495 35.3205 25.6351 35.3741C18.6202 42.2607 29.9789 46.7625 34.1879 56.8648C34.8894 52.6041 29.7091 46.6017 36.1844 42.5019C34.2958 47.62 34.026 53.8368 38.9094 57.5347C38.5317 56.1949 37.8033 54.8818 37.6414 53.2205C37.3985 50.916 37.5874 48.2631 38.2619 46.1194C41.3107 36.0708 37.2636 52.3362 47.9479 54.1315C45.7085 51.7467 44.4404 50.4068 44.6833 46.1998C45.088 39.2327 44.9531 38.6432 43.7389 35.642C44.0357 36.3655 46.7607 37.9197 48.4875 41.0817C50.484 44.7528 49.5127 46.0658 49.135 49.7101C54.7469 38.4556 46.41 37.089 46.6258 32.5872Z" fill="#5679FF"/>
<path fill-rule="evenodd" clip-rule="evenodd" d="M21.1291 4.85262C21.21 4.77223 22.4781 6.16565 23.6383 8.38975C23.6383 8.36295 23.6383 8.33615 23.6383 8.33615C24.4207 3.27164 18.1612 1.47628 16.3535 1.18152C19.1325 3.40562 19.3753 10.6406 23.3684 9.40801C22.4781 7.58586 21.5608 5.60292 21.1291 4.85262Z" fill="#5679FF"/>
<path fill-rule="evenodd" clip-rule="evenodd" d="M27.1458 6.78195C26.4713 7.47865 25.9587 7.98779 25.1762 9.83674C25.1762 9.80994 25.1762 9.80994 25.1762 9.78314C24.3668 5.57611 30.2216 3.99512 31.2738 3.88794C29.4121 5.81728 27.7124 12.5968 25.473 10.6942C25.8238 8.95246 26.6871 7.53225 27.1458 6.78195Z" fill="#5679FF"/>
<path fill-rule="evenodd" clip-rule="evenodd" d="M19.4833 12.0077C20.5355 11.5522 21.3449 11.2039 23.7732 11.1235C23.7462 11.1235 23.7462 11.0967 23.7192 11.0967C19.3484 8.39023 15.0855 14.205 14.5189 15.3305C17.4867 14.0979 26.3903 14.5802 24.6096 11.8202C22.4781 11.4718 20.5085 11.8202 19.4833 12.0077Z" fill="#5679FF"/>
<path fill-rule="evenodd" clip-rule="evenodd" d="M2.64771 20.0462C2.67469 19.9658 4.18559 19.8318 4.83312 19.3227C5.66951 18.8404 4.69821 17.9561 3.07939 19.5103C2.91751 19.671 2.78261 19.8586 2.64771 20.0462Z" fill="#5679FF"/>
<path fill-rule="evenodd" clip-rule="evenodd" d="M3.83475 15.919C5.45357 15.7314 6.18204 14.8739 7.612 14.7399C9.28479 14.5792 9.66251 17.3392 5.80432 16.5621C4.94094 16.4013 4.21247 16.053 3.83475 15.919Z" fill="#5679FF"/>
</g>
<path d="M78.3402 19.2778V36.1393H75.6233L67.6783 24.654H67.5383V36.1393H64.4838V19.2778H67.2172L75.154 30.7713H75.3022V19.2778H78.3402ZM90.832 23.913C90.7552 23.194 90.4313 22.6342 89.8605 22.2335C89.2951 21.8328 88.5596 21.6325 87.654 21.6325C87.0173 21.6325 86.4712 21.7285 86.0156 21.9206C85.56 22.1127 85.2115 22.3734 84.97 22.7028C84.7285 23.0321 84.605 23.4081 84.5995 23.8307C84.5995 24.182 84.6791 24.4866 84.8383 24.7446C85.0029 25.0026 85.2252 25.2221 85.5051 25.4032C85.7851 25.5789 86.0952 25.7271 86.4355 25.8478C86.7758 25.9686 87.1188 26.0701 87.4646 26.1525L89.0454 26.5477C89.6821 26.6959 90.2941 26.8962 90.8814 27.1487C91.4742 27.4012 92.0039 27.7195 92.4704 28.1037C92.9424 28.4879 93.3157 28.9517 93.5901 29.4951C93.8645 30.0385 94.0018 30.6752 94.0018 31.4052C94.0018 32.3932 93.7493 33.2632 93.2443 34.0151C92.7393 34.7616 92.0093 35.3462 91.0543 35.7688C90.1047 36.1859 88.9548 36.3945 87.6046 36.3945C86.2928 36.3945 85.1539 36.1914 84.1878 35.7853C83.2273 35.3791 82.4753 34.7863 81.932 34.0069C81.3941 33.2275 81.1032 32.2779 81.0592 31.1582H84.0643C84.1083 31.7455 84.2894 32.234 84.6077 32.6237C84.9261 33.0134 85.3405 33.3043 85.8509 33.4964C86.3669 33.6885 86.9432 33.7846 87.5799 33.7846C88.244 33.7846 88.8259 33.6858 89.3253 33.4882C89.8303 33.2851 90.2255 33.0052 90.5109 32.6484C90.7963 32.2862 90.9418 31.8635 90.9473 31.3805C90.9418 30.9414 90.8128 30.5792 90.5603 30.2937C90.3078 30.0028 89.9538 29.7613 89.4982 29.5692C89.0481 29.3716 88.5212 29.196 87.9175 29.0423L85.9991 28.5483C84.6105 28.1915 83.5127 27.6509 82.7059 26.9264C81.9045 26.1964 81.5038 25.2276 81.5038 24.0201C81.5038 23.0266 81.7728 22.1566 82.3107 21.4102C82.8541 20.6637 83.5923 20.0846 84.5254 19.673C85.4585 19.2558 86.5151 19.0472 87.6952 19.0472C88.8917 19.0472 89.9401 19.2558 90.8402 19.673C91.7459 20.0846 92.4567 20.6582 92.9726 21.3937C93.4886 22.1237 93.7548 22.9635 93.7712 23.913H90.832ZM95.9839 21.8383V19.2778H109.437V21.8383H104.225V36.1393H101.195V21.8383H95.9839ZM110.878 19.2778H114.327L118.452 26.737H118.617L122.742 19.2778H126.191L120.058 29.8492V36.1393H117.011V29.8492L110.878 19.2778ZM128.355 36.1393V19.2778H131.409V33.5788H138.835V36.1393H128.355ZM141.487 36.1393V19.2778H152.453V21.8383H144.541V26.4159H151.885V28.9764H144.541V33.5788H152.519V36.1393H141.487Z" fill="#5679FF"/>
<defs>
<clipPath id="clip0_0_1">
<rect width="52.6927" height="56.5672" fill="white" transform="translate(0.597015 0.94043)"/>
</clipPath>
</defs>
</svg>
