<svg width="31" height="27" viewBox="0 0 31 27" fill="none" xmlns="http://www.w3.org/2000/svg">
<path d="M28.7546 0.483978L27.0097 1.74937C27.0097 1.74937 24.8336 3.36614 21.7084 4.96539C18.5811 6.56355 14.5113 8.11245 10.9329 8.11245H0.29422V18.1009L0.328153 18.2717L2.51741 25.9341L2.75714 26.7211H9.39387L9.01732 25.3189L7.23855 19.0587H10.9329C14.4642 19.0587 18.5351 20.6361 21.6734 22.2397C24.8117 23.8434 27.0097 25.4218 27.0097 25.4218L28.7546 26.6861V16.6626C30.02 16.2061 30.9438 14.9999 30.9438 13.5845C30.9438 12.1691 30.02 10.9629 28.7546 10.5053V0.483978ZM26.5653 4.5549V22.5823C25.659 21.9705 24.9409 21.4144 22.6652 20.2563C19.4502 18.6143 15.2983 16.9505 11.2405 16.8695V10.3017C15.3366 10.2207 19.494 8.52293 22.7002 6.88099C24.9704 5.7174 25.6666 5.1668 26.5653 4.5549ZM2.48348 10.3017H9.05125V16.8695H2.48348V10.3017ZM2.86003 19.0587H4.94639L6.48544 24.5319H4.39908L2.86003 19.0587Z" fill="#101928"/>
</svg>
