<svg width="32" height="32" viewBox="0 0 32 32" fill="none" xmlns="http://www.w3.org/2000/svg">
<mask id="mask0_1_993" style="mask-type:alpha" maskUnits="userSpaceOnUse" x="3" y="1" width="26" height="30">
<path d="M19.2713 3.24295H12.8859C11.828 3.24295 10.9703 4.10059 10.9703 5.15855V7.71269C10.9703 8.77064 11.828 9.62829 12.8859 9.62829H19.2713C20.3292 9.62829 21.1869 8.77064 21.1869 7.71269V5.15855C21.1869 4.10059 20.3292 3.24295 19.2713 3.24295Z" fill="white" stroke="white" stroke-width="2.55413" stroke-linecap="round" stroke-linejoin="round"/>
<path d="M19.9096 13.4592H12.2472C8.01538 13.4592 4.58481 16.8898 4.58481 21.1216C4.58481 25.3535 8.01538 28.784 12.2472 28.784H19.9096C24.1414 28.784 27.572 25.3535 27.572 21.1216C27.572 16.8898 24.1414 13.4592 19.9096 13.4592Z" stroke="white" stroke-width="2.55413" stroke-linecap="round" stroke-linejoin="round"/>
<path d="M4.58481 21.7601C6.52723 19.2909 12.2472 19.8445 16.0784 21.1216C19.9096 22.3986 25.0179 24.3142 27.572 21.1216" stroke="white" stroke-width="2.55413" stroke-linecap="round" stroke-linejoin="round"/>
<path d="M16.7168 6.43529C16.7168 6.60464 16.6496 6.76705 16.5298 6.8868C16.4101 7.00655 16.2476 7.07382 16.0783 7.07382C15.9089 7.07382 15.7465 7.00655 15.6268 6.8868C15.507 6.76705 15.4398 6.60464 15.4398 6.43529C15.4398 6.26594 15.507 6.10352 15.6268 5.98378C15.7465 5.86403 15.9089 5.79675 16.0783 5.79675C16.2476 5.79675 16.4101 5.86403 16.5298 5.98378C16.6496 6.10352 16.7168 6.26594 16.7168 6.43529Z" fill="black"/>
</mask>
<g mask="url(#mask0_1_993)">
<path d="M0.753815 0.688934H31.4034V31.3385H0.753815V0.688934Z" fill="#101928"/>
</g>
</svg>
