<svg width="14" height="14" viewBox="0 0 14 14" fill="none" xmlns="http://www.w3.org/2000/svg">
<path d="M9.47763 12.516H8.68345V10.5306C8.68345 10.004 8.47427 9.49897 8.10193 9.12663C7.72958 8.75428 7.22458 8.5451 6.698 8.5451H4.31546C3.78888 8.5451 3.28388 8.75428 2.91153 9.12663C2.53919 9.49897 2.33001 10.004 2.33001 10.5306V12.516H1.53583V10.5306C1.53583 9.79335 1.82868 9.08634 2.34996 8.56506C2.87124 8.04377 3.57826 7.75092 4.31546 7.75092H6.698C7.4352 7.75092 8.14221 8.04377 8.6635 8.56506C9.18478 9.08634 9.47763 9.79335 9.47763 10.5306V12.516ZM5.50673 2.19166C5.89942 2.19166 6.28328 2.3081 6.60979 2.52627C6.93629 2.74443 7.19077 3.05451 7.34105 3.41731C7.49132 3.7801 7.53064 4.17931 7.45403 4.56445C7.37742 4.94959 7.18833 5.30336 6.91066 5.58103C6.63299 5.8587 6.27921 6.0478 5.89407 6.12441C5.50893 6.20102 5.10972 6.1617 4.74693 6.01143C4.38414 5.86115 4.07405 5.60667 3.85589 5.28017C3.63772 4.95366 3.52128 4.56979 3.52128 4.17711C3.52128 3.65053 3.73046 3.14553 4.1028 2.77318C4.47515 2.40084 4.98016 2.19166 5.50673 2.19166ZM5.50673 1.39748C4.95697 1.39748 4.41956 1.5605 3.96245 1.86593C3.50534 2.17136 3.14907 2.60548 2.93869 3.11339C2.7283 3.6213 2.67326 4.18019 2.78051 4.71939C2.88776 5.25858 3.1525 5.75387 3.54123 6.1426C3.92997 6.53134 4.42526 6.79608 4.96445 6.90333C5.50365 7.01058 6.06254 6.95554 6.57045 6.74515C7.07836 6.53477 7.51248 6.1785 7.81791 5.72139C8.12334 5.26428 8.28636 4.72687 8.28636 4.17711C8.28636 3.4399 7.99351 2.73289 7.47223 2.21161C6.95094 1.69033 6.24393 1.39748 5.50673 1.39748Z" fill="white"/>
</svg>
