<svg width="25" height="32" viewBox="0 0 25 32" fill="none" xmlns="http://www.w3.org/2000/svg">
<path d="M24.0247 31.5711H21.1057V28.6521C21.1057 27.4909 20.6444 26.3772 19.8232 25.556C19.0021 24.7349 17.8884 24.2736 16.7272 24.2736H7.97013C6.80888 24.2736 5.69519 24.7349 4.87406 25.556C4.05293 26.3772 3.59162 27.4909 3.59162 28.6521V31.5711H0.672607V28.6521C0.672607 26.7167 1.44145 24.8605 2.81 23.492C4.17856 22.1234 6.03471 21.3546 7.97013 21.3546H16.7272C18.6626 21.3546 20.5187 22.1234 21.8873 23.492C23.2558 24.8605 24.0247 26.7167 24.0247 28.6521V31.5711ZM12.3487 18.4356C11.1987 18.4356 10.0599 18.2091 8.99748 17.769C7.93503 17.3289 6.96966 16.6839 6.15649 15.8707C5.34333 15.0575 4.69829 14.0922 4.25821 13.0297C3.81813 11.9673 3.59162 10.8285 3.59162 9.67856C3.59162 8.52857 3.81813 7.38984 4.25821 6.32738C4.69829 5.26493 5.34333 4.29956 6.15649 3.4864C6.96966 2.67323 7.93503 2.0282 8.99748 1.58811C10.0599 1.14803 11.1987 0.921524 12.3487 0.921524C14.6712 0.921524 16.8985 1.84414 18.5408 3.4864C20.1831 5.12866 21.1057 7.35605 21.1057 9.67856C21.1057 12.0011 20.1831 14.2284 18.5408 15.8707C16.8985 17.513 14.6712 18.4356 12.3487 18.4356ZM12.3487 15.5166C13.897 15.5166 15.3819 14.9015 16.4768 13.8067C17.5716 12.7118 18.1867 11.2269 18.1867 9.67856C18.1867 8.13022 17.5716 6.64529 16.4768 5.55045C15.3819 4.45561 13.897 3.84053 12.3487 3.84053C10.8003 3.84053 9.31539 4.45561 8.22055 5.55045C7.1257 6.64529 6.51063 8.13022 6.51063 9.67856C6.51063 11.2269 7.1257 12.7118 8.22055 13.8067C9.31539 14.9015 10.8003 15.5166 12.3487 15.5166Z" fill="#101928"/>
</svg>
